# xmcd
#
# Track frame offsets:
#	150
#	29469
#	51560
#	91325
#	110910
#	141502
#	161432
#	199162
#	221687
#	258722
#	302560
#
# Disc length: 4323 seconds
#
# Revision: 1
# Processed by: cddbd v1.5.1PL0 Copyright (c) Steve Scherf et al.
# Submitted via: audiograbber 1.83.01
#
DISCID=ab10e10b
DTITLE=Made in Brasil - Made in Brasil in Blues
DYEAR=1992
DGENRE=Blues
TTITLE0=Só Você Sabe Ligar o meu Motor
TTITLE1=Tchau Baby
TTITLE2=Blues da Mamma
TTITLE3=Estou Down
TTITLE4=Desilusão
TTITLE5=Fiquei com o Blues
TTITLE6=Deixa Sangrar
TTITLE7=Carinhoso
TTITLE8=Pompéia boogie
TTITLE9=Hotel (Rio Depressão)
TTITLE10=Por do Sol
EXTD=Gravado ao vivo no teatro SESC Pompéia de 21 a 24 de Junho de 1990.
EXTT0=
EXTT1=
EXTT2=
EXTT3=
EXTT4=
EXTT5=
EXTT6=
EXTT7=
EXTT8=
EXTT9=
EXTT10=
PLAYORDER=
